<svg id="Capa_1" enable-background="new 0 0 512 512" style="padding:2px;" height="40" viewBox="0 0 512 512" width="40" xmlns="http://www.w3.org/2000/svg">
    <path d="m406.852 434.997c-27.679-52.198 16.319-175.701 54.009-188.203l-31.35-35.879-104.506 3.301v220.78h81.847z" fill="#f6e3a3"/>
    <path d="m387.173 163.04c-27.776 27.776-66.704 38.503-95.543 42.567-21.392 3.015-39.729-15.322-36.714-36.714 4.064-28.84 14.79-67.767 42.567-95.543 27.776-27.776 66.704-38.503 95.543-42.567 21.392-3.015 39.729 15.322 36.714 36.714-4.065 28.839-14.791 67.767-42.567 95.543z" fill="#8ee2cf"/>
    <path d="m291.629 205.607c22.989-3.24 52.383-10.724 77.434-27.691-53.259-16.784-74.99-63.317-75.63-100.289-24.777 27.394-34.659 63.876-38.518 91.267-3.014 21.39 15.322 39.727 36.714 36.713z" fill="#6fce91"/>
    <path d="m311.277 156.745c-1.919 0-3.839-.733-5.304-2.197-2.929-2.929-2.929-7.678 0-10.606l62.101-62.101c2.93-2.929 7.678-2.929 10.607 0s2.929 7.678 0 10.606l-62.101 62.101c-1.464 1.465-3.383 2.197-5.303 2.197z" fill="#6fce91"/>
    <path d="m256.204 228.875c-13.621 0-24.663-11.042-24.663-24.663 0-38.629-25.786-121.947-77.164-150.473-11.909-6.611-16.203-21.625-9.591-33.534 6.611-11.909 21.626-16.202 33.534-9.591 40.551 22.513 65.12 63.228 78.59 93.419 14.778 33.123 23.958 71.509 23.958 100.179-.001 13.622-11.043 24.663-24.664 24.663z" fill="#e1b89a"/>
    <path d="m256.225 135.467c-1.828 0-4.554-.432-7.157-2.492-13.387-10.589-28.58-18.635-44.697-23.897 18.1 33.595 27.171 72.224 27.171 95.134 0 13.621 11.042 24.663 24.663 24.663s24.663-11.042 24.663-24.663c0-21.357-5.1-48.105-13.807-74.053-1.266.936-2.531 1.875-3.767 2.854-2.565 2.029-5.26 2.454-7.069 2.454z" fill="#d2996f"/>
    <path d="m158.502 132.73c26.996-.255 51.836 8.919 71.44 24.425 15.38 12.165 37.111 12.201 52.486.03 19.618-15.531 44.485-24.717 71.511-24.454 59.295.577 106.999 47.271 111.969 105.32.461 5.387-4.01 9.932-9.405 9.577-100.952-6.642-132.788 133.079-52.683 184.121 4.404 2.806 5.475 8.805 2.256 12.916-32.314 41.275-69.461 59.845-89.258 59.845-39.763 0-45.282-22.547-60.614-22.547s-20.851 22.547-60.614 22.547c-39.624 0-148.753-74.383-149.518-256.33-.264-62.674 49.759-114.859 112.43-115.45z" fill="#e8899e"/>
    <path d="m237.285 491.668c-88.111-72.913-110.491-287.772-71.073-358.726-2.551-.147-5.117-.236-7.711-.212-62.671.591-112.695 52.776-112.431 115.45.765 181.947 109.895 256.33 149.518 256.33 21.735 0 33.23-6.734 41.697-12.842z" fill="#e26e7e"/>
    <ellipse cx="293.041" cy="302.635" fill="#fff" rx="30.17" ry="24.026"/>
    <path d="m159.677 302.75c.011 13.269-13.487 24.038-30.15 24.052s-30.18-10.731-30.191-24 13.487-24.038 30.15-24.052c16.662-.014 30.179 10.731 30.191 24z" fill="#fff"/>
    <path d="m275.437 286.869h.006c4.143-.003 7.497-3.364 7.494-7.506l-.01-12.042c-.003-4.14-3.36-7.494-7.5-7.494h-.006c-4.143.003-7.497 3.364-7.494 7.506l.01 12.042c.003 4.14 3.36 7.494 7.5 7.494zm-81.094 5.423 33.843-.029c4.142-.003 7.497-3.364 7.494-7.506-.003-4.14-3.36-7.494-7.5-7.494h-.006l-33.843.029c-4.142.003-7.497 3.364-7.494 7.506.003 4.14 3.36 7.494 7.5 7.494zm279.037-54.881c-2.579-30.126-16.044-58.184-37.914-79.004-6.871-6.542-14.395-12.186-22.408-16.872 14.872-25.23 21.321-53.211 24.109-72.991 1.768-12.551-2.361-24.893-11.329-33.86-8.968-8.968-21.31-13.095-33.859-11.328-29.265 4.124-70.334 15.225-99.8 44.69-10.435 10.435-19.27 23.048-26.403 37.62-.667-1.569-1.327-3.143-2.017-4.689-13.936-31.234-39.44-73.403-81.798-96.92-7.511-4.17-16.196-5.166-24.456-2.803-8.261 2.362-15.106 7.8-19.276 15.311s-5.166 16.196-2.803 24.456 7.8 15.105 15.311 19.275c11.424 6.343 38.157 25.73 57.767 75.267-15.667-6.917-32.765-10.511-50.071-10.333-12.58.119-24.963 2.192-36.805 6.164-3.927 1.317-6.043 5.568-4.726 9.496 1.317 3.927 5.568 6.042 9.496 4.726 10.347-3.47 21.173-5.282 32.177-5.386 21.324-.176 41.635 5.785 59.19 17.367.111.077.223.153.338.224 2.451 1.631 4.85 3.367 7.188 5.217 18.21 14.403 43.62 14.415 61.794.028 18.89-14.955 41.587-22.84 65.705-22.84.358 0 .719.002 1.077.005 26.553.258 51.859 10.572 71.258 29.041 19.215 18.293 31.045 42.947 33.311 69.42.043.497-.185.842-.383 1.044-.059.06-.133.122-.216.181-.2.072-.401.141-.6.217-.078.008-.153.019-.242.012-24.178-1.591-46.473 4.716-64.476 18.238-16.327 12.263-28.599 29.862-35.487 50.893-7.43 22.686-7.852 47.583-1.187 70.104 7.323 24.746 22.519 45.043 43.944 58.695.215.137.359.302.456.467.002.004.004.007.006.01.096.166.145.332.168.471.045.262.038.651-.25 1.019-32.723 41.797-67.775 56.968-83.352 56.968-22.04 0-31.769-7.26-40.352-13.666-5.85-4.366-11.899-8.881-20.263-8.881s-14.413 4.515-20.263 8.88c-8.582 6.406-18.31 13.667-40.351 13.667-15.597 0-50.684-15.195-83.423-57.055-26.505-33.891-58.187-94.678-58.595-191.807-.142-33.786 15.808-66.14 42.667-86.545 3.298-2.506 3.941-7.211 1.435-10.509-2.506-3.299-7.212-3.94-10.509-1.435-30.589 23.24-48.754 60.082-48.592 98.553.78 185.327 112.643 263.797 157.018 263.797 27.021 0 39.912-9.621 49.324-16.645 5.196-3.878 8.058-5.902 11.29-5.902 3.233 0 6.095 2.024 11.291 5.902 9.412 7.024 22.303 16.645 49.323 16.645 12.115 0 27.702-5.53 43.889-15.571 18.267-11.331 35.997-27.636 51.274-47.15 2.824-3.607 4-8.272 3.225-12.798-.298-1.736-.876-3.395-1.688-4.923-.014-.028-.025-.057-.039-.085-4.955-9.345-7.58-21.828-7.803-37.101-.06-4.105-3.405-7.391-7.497-7.391-.036 0-.074.001-.111.001-4.142.06-7.45 3.466-7.39 7.608.094 6.43.583 12.471 1.455 18.114-10.151-10.334-17.605-23.064-21.904-37.591-5.809-19.631-5.433-41.357 1.059-61.178 5.927-18.096 16.384-33.162 30.24-43.569 10.414-7.821 22.227-12.688 35.272-14.577-7.143 8.253-13.169 18.169-17.748 26.88-11.24 21.383-20.321 48.183-24.913 73.527-.738 4.076 1.967 7.978 6.043 8.717.452.082.901.122 1.346.122 3.557 0 6.715-2.541 7.371-6.165 8.763-48.367 33.379-96.508 53.206-104.55.496-.16.983-.343 1.462-.551.236-.091.464-.192.685-.304 1.657-.809 3.19-1.89 4.512-3.238 3.34-3.407 5.024-8.082 4.617-12.826zm-238.785-86.139c-2.006-1.587-4.074-3.083-6.171-4.533-7.805-24.061-28.956-76.543-70.408-99.557-4.008-2.225-6.909-5.878-8.17-10.286s-.729-9.043 1.496-13.051 5.878-6.909 10.286-8.17 9.043-.729 13.05 1.496c38.741 21.508 62.376 60.769 75.381 89.918 3.017 6.763 5.805 13.78 8.333 20.929.008.023.015.046.023.068 3.367 9.527 6.258 19.287 8.598 29.011-10.834 3.563-23.001 1.624-32.418-5.825zm119.417-26.041c-26.482-.279-52.402 8.258-73.509 24.006-2.027-7.9-4.394-15.791-7.062-23.559 7.197-18.922 17.057-34.739 29.344-47.026 26.533-26.533 64.287-36.638 91.286-40.443 7.842-1.104 15.554 1.475 21.159 7.081s8.186 13.318 7.082 21.16c-2.624 18.624-8.702 44.999-22.696 68.326-14.305-6.102-29.757-9.391-45.604-9.545zm-206.943 161.764h.006c4.142-.003 7.498-3.364 7.494-7.506l-.009-12.042c-.003-4.14-3.36-7.494-7.5-7.494h-.006c-4.142.003-7.497 3.364-7.494 7.506l.009 12.042c.004 4.14 3.361 7.494 7.5 7.494z"/>
</svg>
