<svg id="professor-logo" enable-background="new 0 0 512 512" height="40" viewBox="0 0 512 512" width="40" xmlns="http://www.w3.org/2000/svg">
    <g>
        <path d="m464.796 379.658c-51.159 0-81.267-18.672-99.461-32.717-16.201-12.506-19.198-35.777-6.692-51.978s35.778-19.198 51.978-6.692c11.065 8.541 26.155 17.271 54.175 17.271 20.466 0 37.058 16.591 37.058 37.058s-16.593 37.058-37.058 37.058z" fill="#fae0bd"/>
        <path d="m446.145 187.612c-.556 162.959-54.29 263.136-89.663 306.057-9.549 11.586-26.237 14.226-38.954 6.244l-21.926-13.763c-9.791-6.146-21.861-7.46-32.745-3.565l-34.434 12.323c-14.1 5.046-29.849 1.268-40.126-9.625l-19.463-20.631c-8.743-9.268-21.577-13.493-34.116-11.231l-14.118 2.547c-21.851 3.942-42.359-11.759-44.255-33.882-1.477-17.235-14.494-31.253-31.573-34.002l-20.263-3.261c-13.835-2.226-19.216-19.172-9.288-29.061 37.47-37.32 75.815-104.616 75.815-170.702 0-98.546 80.282-178.342 179.012-177.551 98.055.788 176.431 82.045 176.097 180.103z" fill="#fbf1cf"/>
        <path d="m24.509 384.824 20.263 3.261c17.079 2.748 30.096 16.767 31.573 34.002 1.896 22.122 22.404 37.823 44.255 33.882l14.118-2.547c12.539-2.262 25.372 1.963 34.115 11.231l19.463 20.631c10.276 10.893 26.026 14.671 40.126 9.625l19.032-6.811c-147.977-161.317-93.221-383.838-42.813-468.725-66.461 25.67-113.605 90.173-113.605 165.689 0 66.085-38.345 133.382-75.815 170.702-9.928 9.888-4.547 26.834 9.288 29.06z" fill="#fae0bd"/>
        <path d="m223.88 152.586c-56.377-.063-96.445-7.051-127.973-16.33-5.339-1.571-10.89 1.704-12.118 7.132-3.603 15.919-4.279 28.688-4.533 38.53-.171 6.607 4.213 12.444 10.6 14.142 35.344 9.39 78.272 15.819 134.79 15.819 16.763 0 30.275-13.911 29.624-30.818-.619-16.05-14.329-28.457-30.39-28.475z" fill="#cde9fa"/>
        <path d="m223.88 152.586c-17.854-.02-34.068-.736-48.898-1.998-3.091 9.184-4.721 18.902-4.721 28.875 0 10.756 1.894 21.076 5.361 30.65 15.145 1.142 31.424 1.766 49.023 1.766 16.762 0 30.275-13.911 29.624-30.818-.618-16.05-14.328-28.457-30.389-28.475z" fill="#a2ddfd"/>
        <path d="m345.451 99.688c29.729 0 90.892.514 127.537 37.158 10.907 10.907 17.653 25.974 17.653 42.618 0 33.286-26.984 60.27-60.27 60.27-32.553 0-58.439-19.175-84.919-19.175s-52.366 19.175-84.919 19.175c-33.286 0-60.27-26.984-60.27-60.27 0-16.643 6.746-31.711 17.653-42.618 36.643-36.645 97.806-37.158 127.535-37.158z" fill="#8eafe2"/>
        <path d="m256.982 370.67c-51.159 0-81.267-18.672-99.461-32.717-16.201-12.506-19.198-35.777-6.692-51.978s35.778-19.198 51.978-6.692c11.065 8.541 26.155 17.271 54.176 17.271 20.466 0 37.058 16.591 37.058 37.058-.001 20.468-16.593 37.058-37.059 37.058z" fill="#fae0bd"/>
        <g>
            <g fill="#fff">
                <ellipse cx="269.984" cy="183.752" rx="27.846" ry="22.175"/>
                <ellipse cx="420.919" cy="183.752" rx="27.846" ry="22.175"/>
            </g>
        </g>
        <path d="m305.507 149.146c-3.123-2.721-7.86-2.396-10.581.728-2.2 2.524-5.376 3.973-8.713 3.973s-6.513-1.448-8.713-3.973c-2.722-3.124-7.459-3.448-10.581-.728-3.123 2.721-3.449 7.459-.727 10.581 5.05 5.796 12.347 9.119 20.021 9.119s14.972-3.323 20.022-9.119c2.721-3.122 2.395-7.861-.728-10.581zm39.944 13.419c-6.135 0-11.109 5.304-11.109 11.847s4.973 11.847 11.109 11.847c6.135 0 11.109-5.304 11.109-11.847s-4.973-11.847-11.109-11.847zm-88.47 200.605c-48.868 0-77.553-17.78-94.878-31.153-3.28-2.531-7.988-1.926-10.52 1.353-2.531 3.279-1.925 7.989 1.354 10.52 19.063 14.716 50.59 34.28 104.044 34.28 24.569 0 44.559-19.988 44.559-44.558 0-24.569-19.989-44.558-44.559-44.558-25.767 0-39.528-7.94-49.592-15.709-3.279-2.528-7.989-1.925-10.52 1.354-2.53 3.279-1.924 7.989 1.354 10.521 12.066 9.313 28.483 18.834 58.758 18.834 16.299 0 29.559 13.26 29.559 29.558s-13.26 29.558-29.559 29.558zm167.003-214.024c-3.123-2.721-7.86-2.396-10.581.728-2.2 2.524-5.376 3.973-8.713 3.973s-6.513-1.448-8.713-3.973c-2.722-3.124-7.459-3.448-10.581-.728-3.123 2.721-3.449 7.459-.728 10.581 5.05 5.796 12.347 9.119 20.022 9.119s14.972-3.323 20.021-9.119c2.722-3.122 2.396-7.861-.727-10.581zm40.812 148.896c-7.317 0-13.917-.62-20.008-1.874 2.725-16.357 4.932-33.766 6.46-52.24 27.181-8.825 46.892-34.38 46.892-64.465 0-18.102-7.049-35.121-19.849-47.921-12.579-12.579-27.831-21.132-43.675-26.955-48.815-100.02-170.767-133.653-262.534-77.45-3.532 2.163-4.643 6.78-2.479 10.312 2.163 3.533 6.781 4.643 10.313 2.479 79.183-48.494 184.82-24.799 234.434 58.637-27.243-6.376-53.649-6.378-68.899-6.378-27.975 0-93.485 0-132.839 39.354-4.001 4.001-7.441 8.414-10.278 13.144-35.319-1.247-66.608-5.549-95.194-13.097 8.852-26.737 24.284-50.966 44.973-70.426 3.017-2.838 3.162-7.584.324-10.602-2.838-3.017-7.585-3.162-10.602-.324-22.903 21.542-39.904 48.458-49.451 78.169-8.01.384-14.271 6.082-15.911 13.326-3.661 16.177-4.438 29.294-4.715 39.99-.214 8.2 4.12 15.585 10.984 19.471-5.54 58.47-40.126 116.699-72.815 149.257-14.257 14.2-6.481 38.582 13.39 41.778l20.264 3.261c13.706 2.206 24.106 13.406 25.292 27.238 2.272 26.499 26.876 45.34 53.06 40.622l14.116-2.547c10.085-1.817 20.3 1.545 27.33 8.996l19.462 20.631c12.32 13.06 31.204 17.59 48.109 11.54l34.434-12.322c8.774-3.142 18.336-2.101 26.231 2.855l21.926 13.763c15.928 9.998 36.868 6.565 48.73-7.827 4.47-5.425 8.966-11.42 13.361-17.82 2.345-3.414 1.478-8.083-1.937-10.429-3.417-2.345-8.084-1.478-10.429 1.937-4.148 6.041-8.379 11.685-12.572 16.773-7.114 8.633-19.661 10.637-29.179 4.661l-21.926-13.763c-11.815-7.415-26.126-8.976-39.261-4.273l-34.434 12.322c-11.29 4.043-23.91 1.017-32.144-7.71l-19.463-20.631c-10.521-11.153-25.807-16.184-40.903-13.465l-14.116 2.547c-17.494 3.159-33.928-9.363-35.451-27.142-1.774-20.702-17.341-37.466-37.854-40.766l-20.263-3.258c-7.759-1.251-10.809-10.741-5.187-16.343 31.641-31.514 69.75-90.343 76.834-155.397 33.04 7.972 68.609 12.381 108.276 13.436 12.324 17.017 32.338 28.118 54.909 28.118 33.857 0 60.45-19.176 84.919-19.176 25.884 0 55.416 21.799 90.492 18.928-8.288 92.794-34.097 157.281-54.65 195.441-1.964 3.647-.6 8.195 3.047 10.16 3.639 1.959 8.192.607 10.16-3.047 9.217-17.115 19.454-39.359 28.789-66.834 13.033 2.945 26.955 4.451 41.507 4.451 24.569 0 44.558-19.988 44.558-44.558-.001-24.568-19.989-44.557-44.558-44.557zm-373.016-109.231c-3.041-.808-5.108-3.562-5.027-6.698.259-9.966.978-22.164 4.352-37.069.269-1.187 1.485-1.95 2.686-1.592 33.363 9.819 67.788 14.424 101.972 15.981-4.397 14.278-4.029 29.977 1.549 44.4-38.733-1.551-73.377-6.478-105.532-15.022zm338.591 43.423c-15.852 0-30.372-5.04-44.415-9.914-35.679-12.384-45.337-12.382-81.009 0-14.043 4.874-28.564 9.914-44.415 9.914-29.098 0-52.771-23.673-52.771-52.771 0-14.519 5.862-27.72 15.457-37.313 34.96-34.962 96.117-34.962 122.233-34.962 26.115 0 87.272 0 122.233 34.962 9.967 9.967 15.456 23.218 15.456 37.313 0 29.098-23.671 52.771-52.769 52.771zm34.425 139.923c-12.946 0-25.304-1.289-36.872-3.795 5.304-17.29 10.173-36.425 14.218-57.432 6.982 1.409 14.457 2.112 22.654 2.112 16.298 0 29.558 13.26 29.558 29.558-.001 16.298-13.26 29.557-29.558 29.557z"/>
    </g>
</svg>